<mxfile>
    <diagram id="g2V95nvR-p1iTybqiG1V" name="Page-2">
        <mxGraphModel dx="1204" dy="1890" grid="1" gridSize="10" guides="1" tooltips="1" connect="1" arrows="1" fold="1" page="1" pageScale="1" pageWidth="850" pageHeight="1100" math="0" shadow="0">
            <root>
                <mxCell id="a5lxV5yt09af0xi4WAa7-0"/>
                <mxCell id="a5lxV5yt09af0xi4WAa7-1" parent="a5lxV5yt09af0xi4WAa7-0"/>
                <mxCell id="a5lxV5yt09af0xi4WAa7-2" value="" style="strokeWidth=1;shadow=0;dashed=0;align=center;html=1;shape=mxgraph.mockup.containers.browserWindow;rSize=0;strokeColor=#666666;strokeColor2=#008cff;strokeColor3=#c4c4c4;mainText=,;recursiveResize=0;fillColor=#E6E6E6;" parent="a5lxV5yt09af0xi4WAa7-1" vertex="1">
                    <mxGeometry x="70" y="60" width="740" height="940" as="geometry"/>
                </mxCell>
                <mxCell id="a5lxV5yt09af0xi4WAa7-3" value="Home Page" style="strokeWidth=1;shadow=0;dashed=0;align=center;html=1;shape=mxgraph.mockup.containers.anchor;fontSize=17;fontColor=#666666;align=left;" parent="a5lxV5yt09af0xi4WAa7-2" vertex="1">
                    <mxGeometry x="60" y="12" width="110" height="26" as="geometry"/>
                </mxCell>
                <mxCell id="a5lxV5yt09af0xi4WAa7-4" value="gityourjava.com" style="strokeWidth=1;shadow=0;dashed=0;align=center;html=1;shape=mxgraph.mockup.containers.anchor;rSize=0;fontSize=17;fontColor=#666666;align=left;" parent="a5lxV5yt09af0xi4WAa7-2" vertex="1">
                    <mxGeometry x="130" y="60" width="250" height="26" as="geometry"/>
                </mxCell>
                <mxCell id="a5lxV5yt09af0xi4WAa7-5" value="(prretty pictures )&lt;br&gt;(coffee shop aesthetics)" style="rounded=0;whiteSpace=wrap;html=1;fillColor=#647687;strokeColor=#314354;fontColor=#ffffff;" parent="a5lxV5yt09af0xi4WAa7-2" vertex="1">
                    <mxGeometry x="20" y="200" width="700" height="720" as="geometry"/>
                </mxCell>
                <mxCell id="a5lxV5yt09af0xi4WAa7-7" value="" style="rounded=0;whiteSpace=wrap;html=1;fillColor=#6d8764;strokeColor=#3A5431;fontColor=#ffffff;" parent="a5lxV5yt09af0xi4WAa7-2" vertex="1">
                    <mxGeometry x="10" y="120" width="720" height="60" as="geometry"/>
                </mxCell>
                <mxCell id="a5lxV5yt09af0xi4WAa7-8" value="&lt;font color=&quot;#000000&quot;&gt;Create Account&lt;/font&gt;" style="rounded=0;whiteSpace=wrap;html=1;fillColor=#E6E6E6;" parent="a5lxV5yt09af0xi4WAa7-2" vertex="1">
                    <mxGeometry x="630" y="135" width="90" height="30" as="geometry"/>
                </mxCell>
                <mxCell id="a5lxV5yt09af0xi4WAa7-9" value="&lt;font color=&quot;#000000&quot;&gt;Login&lt;/font&gt;" style="rounded=0;whiteSpace=wrap;html=1;fillColor=#E6E6E6;" parent="a5lxV5yt09af0xi4WAa7-2" vertex="1">
                    <mxGeometry x="550" y="135" width="70" height="30" as="geometry"/>
                </mxCell>
                <mxCell id="a5lxV5yt09af0xi4WAa7-10" value="&lt;font color=&quot;#000000&quot;&gt;Git Your Java!&lt;/font&gt;" style="rounded=0;whiteSpace=wrap;html=1;fillColor=#E6E6E6;" parent="a5lxV5yt09af0xi4WAa7-2" vertex="1">
                    <mxGeometry x="160" y="230" width="440" height="60" as="geometry"/>
                </mxCell>
                <mxCell id="vUmyKShwkIuTNydvMyPZ-0" value="" style="whiteSpace=wrap;html=1;rounded=0;fillColor=#647687;strokeColor=#314354;fontColor=#ffffff;" parent="a5lxV5yt09af0xi4WAa7-1" vertex="1">
                    <mxGeometry x="870" y="50" width="400" height="340" as="geometry"/>
                </mxCell>
                <mxCell id="vUmyKShwkIuTNydvMyPZ-1" value="" style="edgeStyle=orthogonalEdgeStyle;rounded=0;orthogonalLoop=1;jettySize=auto;html=1;" parent="a5lxV5yt09af0xi4WAa7-1" source="a5lxV5yt09af0xi4WAa7-8" target="vUmyKShwkIuTNydvMyPZ-0" edge="1">
                    <mxGeometry relative="1" as="geometry"/>
                </mxCell>
                <mxCell id="vUmyKShwkIuTNydvMyPZ-2" value="" style="rounded=0;whiteSpace=wrap;html=1;fillColor=#E6E6E6;" parent="a5lxV5yt09af0xi4WAa7-1" vertex="1">
                    <mxGeometry x="987.5" y="190" width="170" height="30" as="geometry"/>
                </mxCell>
                <mxCell id="vUmyKShwkIuTNydvMyPZ-3" value="Username" style="text;html=1;strokeColor=none;fillColor=none;align=center;verticalAlign=middle;whiteSpace=wrap;rounded=0;" parent="a5lxV5yt09af0xi4WAa7-1" vertex="1">
                    <mxGeometry x="1022.5" y="160" width="85" height="20" as="geometry"/>
                </mxCell>
                <mxCell id="vUmyKShwkIuTNydvMyPZ-6" value="" style="rounded=0;whiteSpace=wrap;html=1;fillColor=#E6E6E6;" parent="a5lxV5yt09af0xi4WAa7-1" vertex="1">
                    <mxGeometry x="987.5" y="260" width="170" height="30" as="geometry"/>
                </mxCell>
                <mxCell id="vUmyKShwkIuTNydvMyPZ-7" value="Password" style="text;html=1;strokeColor=none;fillColor=none;align=center;verticalAlign=middle;whiteSpace=wrap;rounded=0;" parent="a5lxV5yt09af0xi4WAa7-1" vertex="1">
                    <mxGeometry x="1022.5" y="230" width="85" height="20" as="geometry"/>
                </mxCell>
                <mxCell id="vUmyKShwkIuTNydvMyPZ-8" value="" style="rounded=0;whiteSpace=wrap;html=1;fillColor=#E6E6E6;" parent="a5lxV5yt09af0xi4WAa7-1" vertex="1">
                    <mxGeometry x="987.5" y="120" width="170" height="30" as="geometry"/>
                </mxCell>
                <mxCell id="vUmyKShwkIuTNydvMyPZ-9" value="Email" style="text;html=1;strokeColor=none;fillColor=none;align=center;verticalAlign=middle;whiteSpace=wrap;rounded=0;" parent="a5lxV5yt09af0xi4WAa7-1" vertex="1">
                    <mxGeometry x="1022.5" y="90" width="85" height="20" as="geometry"/>
                </mxCell>
                <mxCell id="vUmyKShwkIuTNydvMyPZ-10" value="Create Account" style="rounded=0;whiteSpace=wrap;html=1;fillColor=#6d8764;strokeColor=#3A5431;fontColor=#ffffff;" parent="a5lxV5yt09af0xi4WAa7-1" vertex="1">
                    <mxGeometry x="987.5" y="320" width="170" height="30" as="geometry"/>
                </mxCell>
                <mxCell id="vUmyKShwkIuTNydvMyPZ-11" value="" style="whiteSpace=wrap;html=1;rounded=0;fillColor=#647687;strokeColor=#314354;fontColor=#ffffff;" parent="a5lxV5yt09af0xi4WAa7-1" vertex="1">
                    <mxGeometry x="480" y="-250" width="360" height="250" as="geometry"/>
                </mxCell>
                <mxCell id="vUmyKShwkIuTNydvMyPZ-12" value="" style="edgeStyle=orthogonalEdgeStyle;rounded=0;orthogonalLoop=1;jettySize=auto;html=1;" parent="a5lxV5yt09af0xi4WAa7-1" source="a5lxV5yt09af0xi4WAa7-9" target="vUmyKShwkIuTNydvMyPZ-11" edge="1">
                    <mxGeometry relative="1" as="geometry"/>
                </mxCell>
                <mxCell id="vUmyKShwkIuTNydvMyPZ-13" value="" style="rounded=0;whiteSpace=wrap;html=1;fillColor=#E6E6E6;" parent="a5lxV5yt09af0xi4WAa7-1" vertex="1">
                    <mxGeometry x="575" y="-200" width="170" height="30" as="geometry"/>
                </mxCell>
                <mxCell id="vUmyKShwkIuTNydvMyPZ-14" value="Username" style="text;html=1;strokeColor=none;fillColor=none;align=center;verticalAlign=middle;whiteSpace=wrap;rounded=0;" parent="a5lxV5yt09af0xi4WAa7-1" vertex="1">
                    <mxGeometry x="610" y="-230" width="85" height="20" as="geometry"/>
                </mxCell>
                <mxCell id="vUmyKShwkIuTNydvMyPZ-15" value="Password" style="text;html=1;strokeColor=none;fillColor=none;align=center;verticalAlign=middle;whiteSpace=wrap;rounded=0;" parent="a5lxV5yt09af0xi4WAa7-1" vertex="1">
                    <mxGeometry x="610" y="-160" width="85" height="20" as="geometry"/>
                </mxCell>
                <mxCell id="vUmyKShwkIuTNydvMyPZ-16" value="" style="rounded=0;whiteSpace=wrap;html=1;fillColor=#E6E6E6;" parent="a5lxV5yt09af0xi4WAa7-1" vertex="1">
                    <mxGeometry x="575" y="-130" width="170" height="30" as="geometry"/>
                </mxCell>
                <mxCell id="vUmyKShwkIuTNydvMyPZ-17" value="Login" style="rounded=0;whiteSpace=wrap;html=1;fillColor=#6d8764;strokeColor=#3A5431;fontColor=#ffffff;" parent="a5lxV5yt09af0xi4WAa7-1" vertex="1">
                    <mxGeometry x="575" y="-70" width="170" height="30" as="geometry"/>
                </mxCell>
            </root>
        </mxGraphModel>
    </diagram>
    <diagram id="6qlQPLye3AjnSJBcA8UI" name="Page-1">
        <mxGraphModel dx="2054" dy="790" grid="1" gridSize="10" guides="1" tooltips="1" connect="1" arrows="1" fold="1" page="1" pageScale="1" pageWidth="850" pageHeight="1100" math="0" shadow="0">
            <root>
                <mxCell id="0"/>
                <mxCell id="1" parent="0"/>
                <mxCell id="2" value="" style="strokeWidth=1;shadow=0;dashed=0;align=center;html=1;shape=mxgraph.mockup.containers.browserWindow;rSize=0;strokeColor=#666666;strokeColor2=#008cff;strokeColor3=#c4c4c4;mainText=,;recursiveResize=0;" parent="1" vertex="1">
                    <mxGeometry x="-10" y="20" width="850" height="1300" as="geometry"/>
                </mxCell>
                <mxCell id="3" value="Customer Page" style="strokeWidth=1;shadow=0;dashed=0;align=center;html=1;shape=mxgraph.mockup.containers.anchor;fontSize=17;fontColor=#666666;align=left;" parent="2" vertex="1">
                    <mxGeometry x="60" y="12" width="110" height="26" as="geometry"/>
                </mxCell>
                <mxCell id="4" value="gityourjava.com/user" style="strokeWidth=1;shadow=0;dashed=0;align=center;html=1;shape=mxgraph.mockup.containers.anchor;rSize=0;fontSize=17;fontColor=#666666;align=left;" parent="2" vertex="1">
                    <mxGeometry x="130" y="60" width="250" height="26" as="geometry"/>
                </mxCell>
                <mxCell id="7" value="" style="strokeWidth=1;html=1;shadow=0;dashed=0;shape=mxgraph.android.action_bar_landscape;fillColor=#E6E6E6;strokeColor=#c0c0c0;strokeWidth=2;" parent="2" vertex="1">
                    <mxGeometry x="20" y="120" width="810" height="30" as="geometry"/>
                </mxCell>
                <mxCell id="11" value="" style="rounded=0;whiteSpace=wrap;html=1;fillColor=#bac8d3;strokeColor=#23445d;" parent="2" vertex="1">
                    <mxGeometry x="20" y="150" width="810" height="820" as="geometry"/>
                </mxCell>
                <mxCell id="0-3H7d9WAp65nOIcjfOr-71" value="What is your mood today?" style="rounded=0;whiteSpace=wrap;html=1;fontColor=#000000;fillColor=#E6E6E6;" parent="2" vertex="1">
                    <mxGeometry x="250" y="200" width="350" height="30" as="geometry"/>
                </mxCell>
                <mxCell id="0-3H7d9WAp65nOIcjfOr-72" value="(sleepy)" style="rounded=0;whiteSpace=wrap;html=1;fontColor=#000000;fillColor=#E6E6E6;" parent="2" vertex="1">
                    <mxGeometry x="250" y="240" width="350" height="30" as="geometry"/>
                </mxCell>
                <mxCell id="20" value="" style="rounded=0;whiteSpace=wrap;html=1;fillColor=#bac8d3;strokeColor=#23445d;" parent="2" vertex="1">
                    <mxGeometry x="45" y="980" width="750" height="260" as="geometry"/>
                </mxCell>
                <mxCell id="19" value="Menu" style="rounded=0;whiteSpace=wrap;html=1;fillColor=#6d8764;strokeColor=#3A5431;fontColor=#ffffff;" parent="2" vertex="1">
                    <mxGeometry x="365" y="1000" width="120" height="30" as="geometry"/>
                </mxCell>
                <mxCell id="32" value="&lt;font color=&quot;#000000&quot;&gt;Add Item&lt;/font&gt;" style="rounded=0;whiteSpace=wrap;html=1;fillColor=#b1ddf0;strokeColor=#10739e;" parent="2" vertex="1">
                    <mxGeometry x="660" y="1105" width="120" height="30" as="geometry"/>
                </mxCell>
                <mxCell id="LyeKp0SqBbw9oA4-TJG2-88" value="(picture of item)" style="ellipse;whiteSpace=wrap;html=1;aspect=fixed;fontColor=#000000;fillColor=#E6E6E6;" parent="2" vertex="1">
                    <mxGeometry x="120" y="1080" width="80" height="80" as="geometry"/>
                </mxCell>
                <mxCell id="LyeKp0SqBbw9oA4-TJG2-89" value="(item details)" style="rounded=0;whiteSpace=wrap;html=1;fontColor=#000000;fillColor=#E6E6E6;" parent="2" vertex="1">
                    <mxGeometry x="210" y="1100" width="430" height="40" as="geometry"/>
                </mxCell>
                <mxCell id="wzI764AM861uO8eZm7Bn-40" value="Sort By Category:" style="rounded=0;whiteSpace=wrap;html=1;fillColor=#647687;strokeColor=#314354;fontColor=#ffffff;" parent="2" vertex="1">
                    <mxGeometry x="140" y="1000" width="150" height="40" as="geometry"/>
                </mxCell>
                <mxCell id="r6rcH3hYFfEXWLWxeHo6-71" value="Welcome, user!&amp;nbsp;" style="text;html=1;strokeColor=none;fillColor=none;align=center;verticalAlign=middle;whiteSpace=wrap;rounded=0;fontColor=#000000;" parent="1" vertex="1">
                    <mxGeometry x="30" y="140" width="270" height="20" as="geometry"/>
                </mxCell>
                <mxCell id="r6rcH3hYFfEXWLWxeHo6-72" value="Your barista today is Barista" style="text;html=1;strokeColor=none;fillColor=none;align=center;verticalAlign=middle;whiteSpace=wrap;rounded=0;fontColor=#000000;" parent="1" vertex="1">
                    <mxGeometry x="290" y="170" width="270" height="20" as="geometry"/>
                </mxCell>
                <mxCell id="0-3H7d9WAp65nOIcjfOr-73" value="" style="triangle;whiteSpace=wrap;html=1;direction=south;" parent="1" vertex="1">
                    <mxGeometry x="560" y="270" width="40" height="20" as="geometry"/>
                </mxCell>
                <mxCell id="w64EsTHPrOAQ_ttPwLia-71" value="" style="rounded=0;whiteSpace=wrap;html=1;fontColor=#ffffff;fillColor=#647687;strokeColor=#314354;" parent="1" vertex="1">
                    <mxGeometry x="100" y="310" width="660" height="620" as="geometry"/>
                </mxCell>
                <mxCell id="UFnPhowOBaGckbU9H8oC-72" value="Orders Table" style="shape=table;html=1;whiteSpace=wrap;startSize=30;container=1;collapsible=0;childLayout=tableLayout;fontStyle=1;align=center;fontColor=#000000;fillColor=#E6E6E6;" parent="1" vertex="1">
                    <mxGeometry x="140" y="330" width="610" height="540" as="geometry"/>
                </mxCell>
                <mxCell id="UFnPhowOBaGckbU9H8oC-111" style="shape=partialRectangle;html=1;whiteSpace=wrap;collapsible=0;dropTarget=0;pointerEvents=0;fillColor=none;top=0;left=0;bottom=0;right=0;points=[[0,0.5],[1,0.5]];portConstraint=eastwest;" parent="UFnPhowOBaGckbU9H8oC-72" vertex="1">
                    <mxGeometry y="30" width="610" height="64" as="geometry"/>
                </mxCell>
                <mxCell id="UFnPhowOBaGckbU9H8oC-112" value="#1" style="shape=partialRectangle;html=1;whiteSpace=wrap;connectable=0;fillColor=none;top=0;left=0;bottom=0;right=0;overflow=hidden;" parent="UFnPhowOBaGckbU9H8oC-111" vertex="1">
                    <mxGeometry width="102" height="64" as="geometry"/>
                </mxCell>
                <mxCell id="UFnPhowOBaGckbU9H8oC-113" value="Decaf" style="shape=partialRectangle;html=1;whiteSpace=wrap;connectable=0;fillColor=none;top=0;left=0;bottom=0;right=0;overflow=hidden;" parent="UFnPhowOBaGckbU9H8oC-111" vertex="1">
                    <mxGeometry x="102" width="103" height="64" as="geometry"/>
                </mxCell>
                <mxCell id="UFnPhowOBaGckbU9H8oC-114" value="$10" style="shape=partialRectangle;html=1;whiteSpace=wrap;connectable=0;fillColor=none;top=0;left=0;bottom=0;right=0;overflow=hidden;" parent="UFnPhowOBaGckbU9H8oC-111" vertex="1">
                    <mxGeometry x="205" width="101" height="64" as="geometry"/>
                </mxCell>
                <mxCell id="wzI764AM861uO8eZm7Bn-41" value="Genereated" style="shape=partialRectangle;html=1;whiteSpace=wrap;connectable=0;fillColor=none;top=0;left=0;bottom=0;right=0;overflow=hidden;" parent="UFnPhowOBaGckbU9H8oC-111" vertex="1">
                    <mxGeometry x="306" width="101" height="64" as="geometry"/>
                </mxCell>
                <mxCell id="UFnPhowOBaGckbU9H8oC-115" value="1" style="shape=partialRectangle;html=1;whiteSpace=wrap;connectable=0;fillColor=none;top=0;left=0;bottom=0;right=0;overflow=hidden;" parent="UFnPhowOBaGckbU9H8oC-111" vertex="1">
                    <mxGeometry x="407" width="102" height="64" as="geometry"/>
                </mxCell>
                <mxCell id="UFnPhowOBaGckbU9H8oC-141" style="shape=partialRectangle;html=1;whiteSpace=wrap;connectable=0;fillColor=none;top=0;left=0;bottom=0;right=0;overflow=hidden;" parent="UFnPhowOBaGckbU9H8oC-111" vertex="1">
                    <mxGeometry x="509" width="101" height="64" as="geometry"/>
                </mxCell>
                <mxCell id="UFnPhowOBaGckbU9H8oC-73" value="" style="shape=partialRectangle;html=1;whiteSpace=wrap;collapsible=0;dropTarget=0;pointerEvents=0;fillColor=none;top=0;left=0;bottom=0;right=0;points=[[0,0.5],[1,0.5]];portConstraint=eastwest;" parent="UFnPhowOBaGckbU9H8oC-72" vertex="1">
                    <mxGeometry y="94" width="610" height="63" as="geometry"/>
                </mxCell>
                <mxCell id="UFnPhowOBaGckbU9H8oC-109" value="#2" style="shape=partialRectangle;html=1;whiteSpace=wrap;connectable=0;fillColor=none;top=0;left=0;bottom=0;right=0;overflow=hidden;" parent="UFnPhowOBaGckbU9H8oC-73" vertex="1">
                    <mxGeometry width="102" height="63" as="geometry"/>
                </mxCell>
                <mxCell id="UFnPhowOBaGckbU9H8oC-74" value="Espresso" style="shape=partialRectangle;html=1;whiteSpace=wrap;connectable=0;fillColor=none;top=0;left=0;bottom=0;right=0;overflow=hidden;" parent="UFnPhowOBaGckbU9H8oC-73" vertex="1">
                    <mxGeometry x="102" width="103" height="63" as="geometry"/>
                </mxCell>
                <mxCell id="UFnPhowOBaGckbU9H8oC-75" value="$13" style="shape=partialRectangle;html=1;whiteSpace=wrap;connectable=0;fillColor=none;top=0;left=0;bottom=0;right=0;overflow=hidden;" parent="UFnPhowOBaGckbU9H8oC-73" vertex="1">
                    <mxGeometry x="205" width="101" height="63" as="geometry"/>
                </mxCell>
                <mxCell id="wzI764AM861uO8eZm7Bn-42" value="Submitted" style="shape=partialRectangle;html=1;whiteSpace=wrap;connectable=0;fillColor=none;top=0;left=0;bottom=0;right=0;overflow=hidden;" parent="UFnPhowOBaGckbU9H8oC-73" vertex="1">
                    <mxGeometry x="306" width="101" height="63" as="geometry"/>
                </mxCell>
                <mxCell id="UFnPhowOBaGckbU9H8oC-107" value="2" style="shape=partialRectangle;html=1;whiteSpace=wrap;connectable=0;fillColor=none;top=0;left=0;bottom=0;right=0;overflow=hidden;" parent="UFnPhowOBaGckbU9H8oC-73" vertex="1">
                    <mxGeometry x="407" width="102" height="63" as="geometry"/>
                </mxCell>
                <mxCell id="UFnPhowOBaGckbU9H8oC-142" style="shape=partialRectangle;html=1;whiteSpace=wrap;connectable=0;fillColor=none;top=0;left=0;bottom=0;right=0;overflow=hidden;" parent="UFnPhowOBaGckbU9H8oC-73" vertex="1">
                    <mxGeometry x="509" width="101" height="63" as="geometry"/>
                </mxCell>
                <mxCell id="UFnPhowOBaGckbU9H8oC-77" value="" style="shape=partialRectangle;html=1;whiteSpace=wrap;collapsible=0;dropTarget=0;pointerEvents=0;fillColor=none;top=0;left=0;bottom=0;right=0;points=[[0,0.5],[1,0.5]];portConstraint=eastwest;" parent="UFnPhowOBaGckbU9H8oC-72" vertex="1">
                    <mxGeometry y="157" width="610" height="65" as="geometry"/>
                </mxCell>
                <mxCell id="UFnPhowOBaGckbU9H8oC-110" value="#3" style="shape=partialRectangle;html=1;whiteSpace=wrap;connectable=0;fillColor=none;top=0;left=0;bottom=0;right=0;overflow=hidden;" parent="UFnPhowOBaGckbU9H8oC-77" vertex="1">
                    <mxGeometry width="102" height="65" as="geometry"/>
                </mxCell>
                <mxCell id="UFnPhowOBaGckbU9H8oC-78" value="Frappuccino" style="shape=partialRectangle;html=1;whiteSpace=wrap;connectable=0;fillColor=none;top=0;left=0;bottom=0;right=0;overflow=hidden;" parent="UFnPhowOBaGckbU9H8oC-77" vertex="1">
                    <mxGeometry x="102" width="103" height="65" as="geometry"/>
                </mxCell>
                <mxCell id="UFnPhowOBaGckbU9H8oC-79" value="iced coffee" style="shape=partialRectangle;html=1;whiteSpace=wrap;connectable=0;fillColor=none;top=0;left=0;bottom=0;right=0;overflow=hidden;" parent="UFnPhowOBaGckbU9H8oC-77" vertex="1">
                    <mxGeometry x="205" width="101" height="65" as="geometry"/>
                </mxCell>
                <mxCell id="wzI764AM861uO8eZm7Bn-43" value="$10" style="shape=partialRectangle;html=1;whiteSpace=wrap;connectable=0;fillColor=none;top=0;left=0;bottom=0;right=0;overflow=hidden;" parent="UFnPhowOBaGckbU9H8oC-77" vertex="1">
                    <mxGeometry x="306" width="101" height="65" as="geometry"/>
                </mxCell>
                <mxCell id="UFnPhowOBaGckbU9H8oC-108" value="1" style="shape=partialRectangle;html=1;whiteSpace=wrap;connectable=0;fillColor=none;top=0;left=0;bottom=0;right=0;overflow=hidden;" parent="UFnPhowOBaGckbU9H8oC-77" vertex="1">
                    <mxGeometry x="407" width="102" height="65" as="geometry"/>
                </mxCell>
                <mxCell id="UFnPhowOBaGckbU9H8oC-143" style="shape=partialRectangle;html=1;whiteSpace=wrap;connectable=0;fillColor=none;top=0;left=0;bottom=0;right=0;overflow=hidden;" parent="UFnPhowOBaGckbU9H8oC-77" vertex="1">
                    <mxGeometry x="509" width="101" height="65" as="geometry"/>
                </mxCell>
                <mxCell id="UFnPhowOBaGckbU9H8oC-116" style="shape=partialRectangle;html=1;whiteSpace=wrap;collapsible=0;dropTarget=0;pointerEvents=0;fillColor=none;top=0;left=0;bottom=0;right=0;points=[[0,0.5],[1,0.5]];portConstraint=eastwest;" parent="UFnPhowOBaGckbU9H8oC-72" vertex="1">
                    <mxGeometry y="222" width="610" height="63" as="geometry"/>
                </mxCell>
                <mxCell id="UFnPhowOBaGckbU9H8oC-117" style="shape=partialRectangle;html=1;whiteSpace=wrap;connectable=0;fillColor=none;top=0;left=0;bottom=0;right=0;overflow=hidden;" parent="UFnPhowOBaGckbU9H8oC-116" vertex="1">
                    <mxGeometry width="102" height="63" as="geometry"/>
                </mxCell>
                <mxCell id="UFnPhowOBaGckbU9H8oC-118" style="shape=partialRectangle;html=1;whiteSpace=wrap;connectable=0;fillColor=none;top=0;left=0;bottom=0;right=0;overflow=hidden;" parent="UFnPhowOBaGckbU9H8oC-116" vertex="1">
                    <mxGeometry x="102" width="103" height="63" as="geometry"/>
                </mxCell>
                <mxCell id="UFnPhowOBaGckbU9H8oC-119" style="shape=partialRectangle;html=1;whiteSpace=wrap;connectable=0;fillColor=none;top=0;left=0;bottom=0;right=0;overflow=hidden;" parent="UFnPhowOBaGckbU9H8oC-116" vertex="1">
                    <mxGeometry x="205" width="101" height="63" as="geometry"/>
                </mxCell>
                <mxCell id="wzI764AM861uO8eZm7Bn-44" style="shape=partialRectangle;html=1;whiteSpace=wrap;connectable=0;fillColor=none;top=0;left=0;bottom=0;right=0;overflow=hidden;" parent="UFnPhowOBaGckbU9H8oC-116" vertex="1">
                    <mxGeometry x="306" width="101" height="63" as="geometry"/>
                </mxCell>
                <mxCell id="UFnPhowOBaGckbU9H8oC-120" style="shape=partialRectangle;html=1;whiteSpace=wrap;connectable=0;fillColor=none;top=0;left=0;bottom=0;right=0;overflow=hidden;" parent="UFnPhowOBaGckbU9H8oC-116" vertex="1">
                    <mxGeometry x="407" width="102" height="63" as="geometry"/>
                </mxCell>
                <mxCell id="UFnPhowOBaGckbU9H8oC-144" style="shape=partialRectangle;html=1;whiteSpace=wrap;connectable=0;fillColor=none;top=0;left=0;bottom=0;right=0;overflow=hidden;" parent="UFnPhowOBaGckbU9H8oC-116" vertex="1">
                    <mxGeometry x="509" width="101" height="63" as="geometry"/>
                </mxCell>
                <mxCell id="UFnPhowOBaGckbU9H8oC-121" style="shape=partialRectangle;html=1;whiteSpace=wrap;collapsible=0;dropTarget=0;pointerEvents=0;fillColor=none;top=0;left=0;bottom=0;right=0;points=[[0,0.5],[1,0.5]];portConstraint=eastwest;" parent="UFnPhowOBaGckbU9H8oC-72" vertex="1">
                    <mxGeometry y="285" width="610" height="64" as="geometry"/>
                </mxCell>
                <mxCell id="UFnPhowOBaGckbU9H8oC-122" style="shape=partialRectangle;html=1;whiteSpace=wrap;connectable=0;fillColor=none;top=0;left=0;bottom=0;right=0;overflow=hidden;" parent="UFnPhowOBaGckbU9H8oC-121" vertex="1">
                    <mxGeometry width="102" height="64" as="geometry"/>
                </mxCell>
                <mxCell id="UFnPhowOBaGckbU9H8oC-123" style="shape=partialRectangle;html=1;whiteSpace=wrap;connectable=0;fillColor=none;top=0;left=0;bottom=0;right=0;overflow=hidden;" parent="UFnPhowOBaGckbU9H8oC-121" vertex="1">
                    <mxGeometry x="102" width="103" height="64" as="geometry"/>
                </mxCell>
                <mxCell id="UFnPhowOBaGckbU9H8oC-124" style="shape=partialRectangle;html=1;whiteSpace=wrap;connectable=0;fillColor=none;top=0;left=0;bottom=0;right=0;overflow=hidden;" parent="UFnPhowOBaGckbU9H8oC-121" vertex="1">
                    <mxGeometry x="205" width="101" height="64" as="geometry"/>
                </mxCell>
                <mxCell id="wzI764AM861uO8eZm7Bn-45" style="shape=partialRectangle;html=1;whiteSpace=wrap;connectable=0;fillColor=none;top=0;left=0;bottom=0;right=0;overflow=hidden;" parent="UFnPhowOBaGckbU9H8oC-121" vertex="1">
                    <mxGeometry x="306" width="101" height="64" as="geometry"/>
                </mxCell>
                <mxCell id="UFnPhowOBaGckbU9H8oC-125" style="shape=partialRectangle;html=1;whiteSpace=wrap;connectable=0;fillColor=none;top=0;left=0;bottom=0;right=0;overflow=hidden;" parent="UFnPhowOBaGckbU9H8oC-121" vertex="1">
                    <mxGeometry x="407" width="102" height="64" as="geometry"/>
                </mxCell>
                <mxCell id="UFnPhowOBaGckbU9H8oC-145" style="shape=partialRectangle;html=1;whiteSpace=wrap;connectable=0;fillColor=none;top=0;left=0;bottom=0;right=0;overflow=hidden;" parent="UFnPhowOBaGckbU9H8oC-121" vertex="1">
                    <mxGeometry x="509" width="101" height="64" as="geometry"/>
                </mxCell>
                <mxCell id="UFnPhowOBaGckbU9H8oC-126" style="shape=partialRectangle;html=1;whiteSpace=wrap;collapsible=0;dropTarget=0;pointerEvents=0;fillColor=none;top=0;left=0;bottom=0;right=0;points=[[0,0.5],[1,0.5]];portConstraint=eastwest;" parent="UFnPhowOBaGckbU9H8oC-72" vertex="1">
                    <mxGeometry y="349" width="610" height="64" as="geometry"/>
                </mxCell>
                <mxCell id="UFnPhowOBaGckbU9H8oC-127" style="shape=partialRectangle;html=1;whiteSpace=wrap;connectable=0;fillColor=none;top=0;left=0;bottom=0;right=0;overflow=hidden;" parent="UFnPhowOBaGckbU9H8oC-126" vertex="1">
                    <mxGeometry width="102" height="64" as="geometry"/>
                </mxCell>
                <mxCell id="UFnPhowOBaGckbU9H8oC-128" style="shape=partialRectangle;html=1;whiteSpace=wrap;connectable=0;fillColor=none;top=0;left=0;bottom=0;right=0;overflow=hidden;" parent="UFnPhowOBaGckbU9H8oC-126" vertex="1">
                    <mxGeometry x="102" width="103" height="64" as="geometry"/>
                </mxCell>
                <mxCell id="UFnPhowOBaGckbU9H8oC-129" style="shape=partialRectangle;html=1;whiteSpace=wrap;connectable=0;fillColor=none;top=0;left=0;bottom=0;right=0;overflow=hidden;" parent="UFnPhowOBaGckbU9H8oC-126" vertex="1">
                    <mxGeometry x="205" width="101" height="64" as="geometry"/>
                </mxCell>
                <mxCell id="wzI764AM861uO8eZm7Bn-46" style="shape=partialRectangle;html=1;whiteSpace=wrap;connectable=0;fillColor=none;top=0;left=0;bottom=0;right=0;overflow=hidden;" parent="UFnPhowOBaGckbU9H8oC-126" vertex="1">
                    <mxGeometry x="306" width="101" height="64" as="geometry"/>
                </mxCell>
                <mxCell id="UFnPhowOBaGckbU9H8oC-130" style="shape=partialRectangle;html=1;whiteSpace=wrap;connectable=0;fillColor=none;top=0;left=0;bottom=0;right=0;overflow=hidden;" parent="UFnPhowOBaGckbU9H8oC-126" vertex="1">
                    <mxGeometry x="407" width="102" height="64" as="geometry"/>
                </mxCell>
                <mxCell id="UFnPhowOBaGckbU9H8oC-146" style="shape=partialRectangle;html=1;whiteSpace=wrap;connectable=0;fillColor=none;top=0;left=0;bottom=0;right=0;overflow=hidden;" parent="UFnPhowOBaGckbU9H8oC-126" vertex="1">
                    <mxGeometry x="509" width="101" height="64" as="geometry"/>
                </mxCell>
                <mxCell id="UFnPhowOBaGckbU9H8oC-131" style="shape=partialRectangle;html=1;whiteSpace=wrap;collapsible=0;dropTarget=0;pointerEvents=0;fillColor=none;top=0;left=0;bottom=0;right=0;points=[[0,0.5],[1,0.5]];portConstraint=eastwest;" parent="UFnPhowOBaGckbU9H8oC-72" vertex="1">
                    <mxGeometry y="413" width="610" height="63" as="geometry"/>
                </mxCell>
                <mxCell id="UFnPhowOBaGckbU9H8oC-132" style="shape=partialRectangle;html=1;whiteSpace=wrap;connectable=0;fillColor=none;top=0;left=0;bottom=0;right=0;overflow=hidden;" parent="UFnPhowOBaGckbU9H8oC-131" vertex="1">
                    <mxGeometry width="102" height="63" as="geometry"/>
                </mxCell>
                <mxCell id="UFnPhowOBaGckbU9H8oC-133" style="shape=partialRectangle;html=1;whiteSpace=wrap;connectable=0;fillColor=none;top=0;left=0;bottom=0;right=0;overflow=hidden;" parent="UFnPhowOBaGckbU9H8oC-131" vertex="1">
                    <mxGeometry x="102" width="103" height="63" as="geometry"/>
                </mxCell>
                <mxCell id="UFnPhowOBaGckbU9H8oC-134" style="shape=partialRectangle;html=1;whiteSpace=wrap;connectable=0;fillColor=none;top=0;left=0;bottom=0;right=0;overflow=hidden;" parent="UFnPhowOBaGckbU9H8oC-131" vertex="1">
                    <mxGeometry x="205" width="101" height="63" as="geometry"/>
                </mxCell>
                <mxCell id="wzI764AM861uO8eZm7Bn-47" style="shape=partialRectangle;html=1;whiteSpace=wrap;connectable=0;fillColor=none;top=0;left=0;bottom=0;right=0;overflow=hidden;" parent="UFnPhowOBaGckbU9H8oC-131" vertex="1">
                    <mxGeometry x="306" width="101" height="63" as="geometry"/>
                </mxCell>
                <mxCell id="UFnPhowOBaGckbU9H8oC-135" style="shape=partialRectangle;html=1;whiteSpace=wrap;connectable=0;fillColor=none;top=0;left=0;bottom=0;right=0;overflow=hidden;" parent="UFnPhowOBaGckbU9H8oC-131" vertex="1">
                    <mxGeometry x="407" width="102" height="63" as="geometry"/>
                </mxCell>
                <mxCell id="UFnPhowOBaGckbU9H8oC-147" style="shape=partialRectangle;html=1;whiteSpace=wrap;connectable=0;fillColor=none;top=0;left=0;bottom=0;right=0;overflow=hidden;" parent="UFnPhowOBaGckbU9H8oC-131" vertex="1">
                    <mxGeometry x="509" width="101" height="63" as="geometry"/>
                </mxCell>
                <mxCell id="UFnPhowOBaGckbU9H8oC-136" style="shape=partialRectangle;html=1;whiteSpace=wrap;collapsible=0;dropTarget=0;pointerEvents=0;fillColor=none;top=0;left=0;bottom=0;right=0;points=[[0,0.5],[1,0.5]];portConstraint=eastwest;" parent="UFnPhowOBaGckbU9H8oC-72" vertex="1">
                    <mxGeometry y="476" width="610" height="64" as="geometry"/>
                </mxCell>
                <mxCell id="UFnPhowOBaGckbU9H8oC-137" style="shape=partialRectangle;html=1;whiteSpace=wrap;connectable=0;top=0;left=0;bottom=0;right=0;overflow=hidden;" parent="UFnPhowOBaGckbU9H8oC-136" vertex="1">
                    <mxGeometry width="102" height="64" as="geometry"/>
                </mxCell>
                <mxCell id="UFnPhowOBaGckbU9H8oC-138" style="shape=partialRectangle;html=1;whiteSpace=wrap;connectable=0;top=0;left=0;bottom=0;right=0;overflow=hidden;" parent="UFnPhowOBaGckbU9H8oC-136" vertex="1">
                    <mxGeometry x="102" width="103" height="64" as="geometry"/>
                </mxCell>
                <mxCell id="UFnPhowOBaGckbU9H8oC-139" style="shape=partialRectangle;html=1;whiteSpace=wrap;connectable=0;top=0;left=0;bottom=0;right=0;overflow=hidden;" parent="UFnPhowOBaGckbU9H8oC-136" vertex="1">
                    <mxGeometry x="205" width="101" height="64" as="geometry"/>
                </mxCell>
                <mxCell id="wzI764AM861uO8eZm7Bn-48" style="shape=partialRectangle;html=1;whiteSpace=wrap;connectable=0;top=0;left=0;bottom=0;right=0;overflow=hidden;" parent="UFnPhowOBaGckbU9H8oC-136" vertex="1">
                    <mxGeometry x="306" width="101" height="64" as="geometry"/>
                </mxCell>
                <mxCell id="UFnPhowOBaGckbU9H8oC-140" value="Total:" style="shape=partialRectangle;html=1;whiteSpace=wrap;connectable=0;top=0;left=0;bottom=0;right=0;overflow=hidden;" parent="UFnPhowOBaGckbU9H8oC-136" vertex="1">
                    <mxGeometry x="407" width="102" height="64" as="geometry"/>
                </mxCell>
                <mxCell id="UFnPhowOBaGckbU9H8oC-148" value="$23" style="shape=partialRectangle;html=1;whiteSpace=wrap;connectable=0;top=0;left=0;bottom=0;right=0;overflow=hidden;" parent="UFnPhowOBaGckbU9H8oC-136" vertex="1">
                    <mxGeometry x="509" width="101" height="64" as="geometry"/>
                </mxCell>
                <mxCell id="UFnPhowOBaGckbU9H8oC-149" value="DEL" style="rounded=0;whiteSpace=wrap;html=1;fillColor=#e51400;strokeColor=#B20000;fontColor=#ffffff;" parent="1" vertex="1">
                    <mxGeometry x="670" y="370" width="70" height="40" as="geometry"/>
                </mxCell>
                <mxCell id="UFnPhowOBaGckbU9H8oC-150" value="" style="triangle;whiteSpace=wrap;html=1;direction=south;" parent="1" vertex="1">
                    <mxGeometry x="610" y="400" width="30" height="10" as="geometry"/>
                </mxCell>
                <mxCell id="UFnPhowOBaGckbU9H8oC-151" value="" style="triangle;whiteSpace=wrap;html=1;direction=south;" parent="1" vertex="1">
                    <mxGeometry x="610" y="465" width="30" height="10" as="geometry"/>
                </mxCell>
                <mxCell id="UFnPhowOBaGckbU9H8oC-152" style="edgeStyle=orthogonalEdgeStyle;rounded=0;orthogonalLoop=1;jettySize=auto;html=1;exitX=1;exitY=0.5;exitDx=0;exitDy=0;fontColor=#000000;" parent="1" source="UFnPhowOBaGckbU9H8oC-150" target="UFnPhowOBaGckbU9H8oC-150" edge="1">
                    <mxGeometry relative="1" as="geometry"/>
                </mxCell>
                <mxCell id="UFnPhowOBaGckbU9H8oC-154" value="" style="triangle;whiteSpace=wrap;html=1;direction=south;" parent="1" vertex="1">
                    <mxGeometry x="610" y="530" width="30" height="10" as="geometry"/>
                </mxCell>
                <mxCell id="LyeKp0SqBbw9oA4-TJG2-73" value="" style="triangle;whiteSpace=wrap;html=1;direction=north;" parent="1" vertex="1">
                    <mxGeometry x="610" y="450" width="30" height="10" as="geometry"/>
                </mxCell>
                <mxCell id="LyeKp0SqBbw9oA4-TJG2-74" value="" style="triangle;whiteSpace=wrap;html=1;direction=north;" parent="1" vertex="1">
                    <mxGeometry x="610" y="385" width="30" height="10" as="geometry"/>
                </mxCell>
                <mxCell id="LyeKp0SqBbw9oA4-TJG2-75" value="" style="triangle;whiteSpace=wrap;html=1;direction=north;" parent="1" vertex="1">
                    <mxGeometry x="610" y="515" width="30" height="10" as="geometry"/>
                </mxCell>
                <mxCell id="LyeKp0SqBbw9oA4-TJG2-76" value="Order" style="rounded=0;whiteSpace=wrap;html=1;fillColor=#008a00;strokeColor=#005700;fontColor=#ffffff;" parent="1" vertex="1">
                    <mxGeometry x="395" y="880" width="100" height="40" as="geometry"/>
                </mxCell>
                <mxCell id="wzI764AM861uO8eZm7Bn-36" value="" style="rounded=0;whiteSpace=wrap;html=1;fillColor=#647687;strokeColor=#314354;fontColor=#ffffff;" parent="1" vertex="1">
                    <mxGeometry x="920" y="520" width="320" height="140" as="geometry"/>
                </mxCell>
                <mxCell id="wzI764AM861uO8eZm7Bn-37" value="" style="endArrow=classic;html=1;exitX=1;exitY=0.5;exitDx=0;exitDy=0;entryX=0.466;entryY=1.011;entryDx=0;entryDy=0;entryPerimeter=0;" parent="1" source="LyeKp0SqBbw9oA4-TJG2-76" target="wzI764AM861uO8eZm7Bn-36" edge="1">
                    <mxGeometry width="50" height="50" relative="1" as="geometry">
                        <mxPoint x="850" y="730" as="sourcePoint"/>
                        <mxPoint x="900" y="680" as="targetPoint"/>
                        <Array as="points">
                            <mxPoint x="1069" y="900"/>
                        </Array>
                    </mxGeometry>
                </mxCell>
                <mxCell id="wzI764AM861uO8eZm7Bn-38" value="Your Order will be ready in 10 minutes.&lt;br&gt;Please head to the store to pick up your order!" style="text;html=1;strokeColor=none;fillColor=none;align=center;verticalAlign=middle;whiteSpace=wrap;rounded=0;" parent="1" vertex="1">
                    <mxGeometry x="950" y="500" width="250" height="140" as="geometry"/>
                </mxCell>
                <mxCell id="wzI764AM861uO8eZm7Bn-39" value="OK" style="rounded=0;whiteSpace=wrap;html=1;fillColor=#6d8764;strokeColor=#3A5431;fontColor=#ffffff;" parent="1" vertex="1">
                    <mxGeometry x="1015" y="605" width="120" height="30" as="geometry"/>
                </mxCell>
                <mxCell id="wzI764AM861uO8eZm7Bn-51" value="DEL" style="rounded=0;whiteSpace=wrap;html=1;fillColor=#e51400;strokeColor=#B20000;fontColor=#ffffff;" parent="1" vertex="1">
                    <mxGeometry x="670" y="435" width="70" height="40" as="geometry"/>
                </mxCell>
                <mxCell id="wzI764AM861uO8eZm7Bn-52" value="DEL" style="rounded=0;whiteSpace=wrap;html=1;fillColor=#e51400;strokeColor=#B20000;fontColor=#ffffff;" parent="1" vertex="1">
                    <mxGeometry x="670" y="500" width="70" height="40" as="geometry"/>
                </mxCell>
                <mxCell id="wzI764AM861uO8eZm7Bn-53" value="" style="triangle;whiteSpace=wrap;html=1;direction=south;" parent="1" vertex="1">
                    <mxGeometry x="260" y="1040" width="30" height="10" as="geometry"/>
                </mxCell>
            </root>
        </mxGraphModel>
    </diagram>
    <diagram id="aNuoCZRhsZT-_FmCmlI9" name="Page-3">
        &#xa;
        <mxGraphModel dx="1204" dy="790" grid="1" gridSize="10" guides="1" tooltips="1" connect="1" arrows="1" fold="1" page="1" pageScale="1" pageWidth="850" pageHeight="1100" math="0" shadow="0">
            &#xa;
            <root>
                &#xa;
                <mxCell id="Na8BR6bpJuqjeoadptdl-0"/>
                &#xa;
                <mxCell id="Na8BR6bpJuqjeoadptdl-1" parent="Na8BR6bpJuqjeoadptdl-0"/>
                &#xa;
                <mxCell id="Na8BR6bpJuqjeoadptdl-2" value="" style="strokeWidth=1;shadow=0;dashed=0;align=center;html=1;shape=mxgraph.mockup.containers.browserWindow;rSize=0;strokeColor=#666666;strokeColor2=#008cff;strokeColor3=#c4c4c4;mainText=,;recursiveResize=0;" parent="Na8BR6bpJuqjeoadptdl-1" vertex="1">
                    &#xa;
                    <mxGeometry x="100" y="50" width="760" height="860" as="geometry"/>
                    &#xa;
                </mxCell>
                &#xa;
                <mxCell id="Na8BR6bpJuqjeoadptdl-3" value="Employee Page" style="strokeWidth=1;shadow=0;dashed=0;align=center;html=1;shape=mxgraph.mockup.containers.anchor;fontSize=17;fontColor=#666666;align=left;" parent="Na8BR6bpJuqjeoadptdl-2" vertex="1">
                    &#xa;
                    <mxGeometry x="60" y="12" width="110" height="26" as="geometry"/>
                    &#xa;
                </mxCell>
                &#xa;
                <mxCell id="Na8BR6bpJuqjeoadptdl-4" value="gityourjava.com/employee" style="strokeWidth=1;shadow=0;dashed=0;align=center;html=1;shape=mxgraph.mockup.containers.anchor;rSize=0;fontSize=17;fontColor=#666666;align=left;" parent="Na8BR6bpJuqjeoadptdl-2" vertex="1">
                    &#xa;
                    <mxGeometry x="130" y="60" width="250" height="26" as="geometry"/>
                    &#xa;
                </mxCell>
                &#xa;
                <mxCell id="3LQPEUW8eUS8wfKg7xUY-1" value="Welcome, Barista" style="html=1;shadow=0;dashed=0;fillColor=#F8F9FA;strokeColor=none;fontSize=16;fontColor=#181819;align=left;spacing=15;" parent="Na8BR6bpJuqjeoadptdl-2" vertex="1">
                    &#xa;
                    <mxGeometry x="5" y="110" width="745" height="50" as="geometry"/>
                    &#xa;
                </mxCell>
                &#xa;
                <mxCell id="3LQPEUW8eUS8wfKg7xUY-9" value="" style="rounded=0;whiteSpace=wrap;html=1;fillColor=#647687;strokeColor=#314354;fontColor=#ffffff;" parent="Na8BR6bpJuqjeoadptdl-1" vertex="1">
                    &#xa;
                    <mxGeometry x="140" y="240" width="680" height="260" as="geometry"/>
                    &#xa;
                </mxCell>
                &#xa;
                <mxCell id="3LQPEUW8eUS8wfKg7xUY-41" value="Orders" style="shape=table;html=1;whiteSpace=wrap;startSize=30;container=1;collapsible=0;childLayout=tableLayout;fontStyle=1;align=center;" parent="Na8BR6bpJuqjeoadptdl-1" vertex="1">
                    &#xa;
                    <mxGeometry x="160" y="260" width="630" height="206" as="geometry"/>
                    &#xa;
                </mxCell>
                &#xa;
                <mxCell id="3LQPEUW8eUS8wfKg7xUY-42" value="" style="shape=partialRectangle;html=1;whiteSpace=wrap;collapsible=0;dropTarget=0;pointerEvents=0;fillColor=none;top=0;left=0;bottom=0;right=0;points=[[0,0.5],[1,0.5]];portConstraint=eastwest;" parent="3LQPEUW8eUS8wfKg7xUY-41" vertex="1">
                    &#xa;
                    <mxGeometry y="30" width="630" height="56" as="geometry"/>
                    &#xa;
                </mxCell>
                &#xa;
                <mxCell id="3LQPEUW8eUS8wfKg7xUY-43" value="Order #1" style="shape=partialRectangle;html=1;whiteSpace=wrap;connectable=0;fillColor=none;top=0;left=0;bottom=0;right=0;overflow=hidden;" parent="3LQPEUW8eUS8wfKg7xUY-42" vertex="1">
                    &#xa;
                    <mxGeometry width="126" height="56" as="geometry"/>
                    &#xa;
                </mxCell>
                &#xa;
                <mxCell id="3LQPEUW8eUS8wfKg7xUY-44" value="details" style="shape=partialRectangle;html=1;whiteSpace=wrap;connectable=0;fillColor=none;top=0;left=0;bottom=0;right=0;overflow=hidden;" parent="3LQPEUW8eUS8wfKg7xUY-42" vertex="1">
                    &#xa;
                    <mxGeometry x="126" width="126" height="56" as="geometry"/>
                    &#xa;
                </mxCell>
                &#xa;
                <mxCell id="3LQPEUW8eUS8wfKg7xUY-45" value="details" style="shape=partialRectangle;html=1;whiteSpace=wrap;connectable=0;fillColor=none;top=0;left=0;bottom=0;right=0;overflow=hidden;" parent="3LQPEUW8eUS8wfKg7xUY-42" vertex="1">
                    &#xa;
                    <mxGeometry x="252" width="126" height="56" as="geometry"/>
                    &#xa;
                </mxCell>
                &#xa;
                <mxCell id="3LQPEUW8eUS8wfKg7xUY-54" value="Submited" style="shape=partialRectangle;html=1;whiteSpace=wrap;connectable=0;fillColor=none;top=0;left=0;bottom=0;right=0;overflow=hidden;" parent="3LQPEUW8eUS8wfKg7xUY-42" vertex="1">
                    &#xa;
                    <mxGeometry x="378" width="126" height="56" as="geometry"/>
                    &#xa;
                </mxCell>
                &#xa;
                <mxCell id="3LQPEUW8eUS8wfKg7xUY-57" style="shape=partialRectangle;html=1;whiteSpace=wrap;connectable=0;fillColor=none;top=0;left=0;bottom=0;right=0;overflow=hidden;" parent="3LQPEUW8eUS8wfKg7xUY-42" vertex="1">
                    &#xa;
                    <mxGeometry x="504" width="126" height="56" as="geometry"/>
                    &#xa;
                </mxCell>
                &#xa;
                <mxCell id="3LQPEUW8eUS8wfKg7xUY-46" value="" style="shape=partialRectangle;html=1;whiteSpace=wrap;collapsible=0;dropTarget=0;pointerEvents=0;fillColor=none;top=0;left=0;bottom=0;right=0;points=[[0,0.5],[1,0.5]];portConstraint=eastwest;" parent="3LQPEUW8eUS8wfKg7xUY-41" vertex="1">
                    &#xa;
                    <mxGeometry y="86" width="630" height="64" as="geometry"/>
                    &#xa;
                </mxCell>
                &#xa;
                <mxCell id="3LQPEUW8eUS8wfKg7xUY-47" value="Order #2" style="shape=partialRectangle;html=1;whiteSpace=wrap;connectable=0;fillColor=none;top=0;left=0;bottom=0;right=0;overflow=hidden;" parent="3LQPEUW8eUS8wfKg7xUY-46" vertex="1">
                    &#xa;
                    <mxGeometry width="126" height="64" as="geometry"/>
                    &#xa;
                </mxCell>
                &#xa;
                <mxCell id="3LQPEUW8eUS8wfKg7xUY-48" value="details" style="shape=partialRectangle;html=1;whiteSpace=wrap;connectable=0;fillColor=none;top=0;left=0;bottom=0;right=0;overflow=hidden;" parent="3LQPEUW8eUS8wfKg7xUY-46" vertex="1">
                    &#xa;
                    <mxGeometry x="126" width="126" height="64" as="geometry"/>
                    &#xa;
                </mxCell>
                &#xa;
                <mxCell id="3LQPEUW8eUS8wfKg7xUY-49" value="details" style="shape=partialRectangle;html=1;whiteSpace=wrap;connectable=0;fillColor=none;top=0;left=0;bottom=0;right=0;overflow=hidden;" parent="3LQPEUW8eUS8wfKg7xUY-46" vertex="1">
                    &#xa;
                    <mxGeometry x="252" width="126" height="64" as="geometry"/>
                    &#xa;
                </mxCell>
                &#xa;
                <mxCell id="3LQPEUW8eUS8wfKg7xUY-55" value="Submitted" style="shape=partialRectangle;html=1;whiteSpace=wrap;connectable=0;fillColor=none;top=0;left=0;bottom=0;right=0;overflow=hidden;" parent="3LQPEUW8eUS8wfKg7xUY-46" vertex="1">
                    &#xa;
                    <mxGeometry x="378" width="126" height="64" as="geometry"/>
                    &#xa;
                </mxCell>
                &#xa;
                <mxCell id="3LQPEUW8eUS8wfKg7xUY-58" style="shape=partialRectangle;html=1;whiteSpace=wrap;connectable=0;fillColor=none;top=0;left=0;bottom=0;right=0;overflow=hidden;" parent="3LQPEUW8eUS8wfKg7xUY-46" vertex="1">
                    &#xa;
                    <mxGeometry x="504" width="126" height="64" as="geometry"/>
                    &#xa;
                </mxCell>
                &#xa;
                <mxCell id="3LQPEUW8eUS8wfKg7xUY-50" value="" style="shape=partialRectangle;html=1;whiteSpace=wrap;collapsible=0;dropTarget=0;pointerEvents=0;fillColor=none;top=0;left=0;bottom=0;right=0;points=[[0,0.5],[1,0.5]];portConstraint=eastwest;" parent="3LQPEUW8eUS8wfKg7xUY-41" vertex="1">
                    &#xa;
                    <mxGeometry y="150" width="630" height="56" as="geometry"/>
                    &#xa;
                </mxCell>
                &#xa;
                <mxCell id="3LQPEUW8eUS8wfKg7xUY-51" value="Order #3" style="shape=partialRectangle;html=1;whiteSpace=wrap;connectable=0;fillColor=none;top=0;left=0;bottom=0;right=0;overflow=hidden;" parent="3LQPEUW8eUS8wfKg7xUY-50" vertex="1">
                    &#xa;
                    <mxGeometry width="126" height="56" as="geometry"/>
                    &#xa;
                </mxCell>
                &#xa;
                <mxCell id="3LQPEUW8eUS8wfKg7xUY-52" value="details" style="shape=partialRectangle;html=1;whiteSpace=wrap;connectable=0;fillColor=none;top=0;left=0;bottom=0;right=0;overflow=hidden;" parent="3LQPEUW8eUS8wfKg7xUY-50" vertex="1">
                    &#xa;
                    <mxGeometry x="126" width="126" height="56" as="geometry"/>
                    &#xa;
                </mxCell>
                &#xa;
                <mxCell id="3LQPEUW8eUS8wfKg7xUY-53" value="details" style="shape=partialRectangle;html=1;whiteSpace=wrap;connectable=0;fillColor=none;top=0;left=0;bottom=0;right=0;overflow=hidden;" parent="3LQPEUW8eUS8wfKg7xUY-50" vertex="1">
                    &#xa;
                    <mxGeometry x="252" width="126" height="56" as="geometry"/>
                    &#xa;
                </mxCell>
                &#xa;
                <mxCell id="3LQPEUW8eUS8wfKg7xUY-56" value="Submitted" style="shape=partialRectangle;html=1;whiteSpace=wrap;connectable=0;fillColor=none;top=0;left=0;bottom=0;right=0;overflow=hidden;" parent="3LQPEUW8eUS8wfKg7xUY-50" vertex="1">
                    &#xa;
                    <mxGeometry x="378" width="126" height="56" as="geometry"/>
                    &#xa;
                </mxCell>
                &#xa;
                <mxCell id="3LQPEUW8eUS8wfKg7xUY-59" style="shape=partialRectangle;html=1;whiteSpace=wrap;connectable=0;fillColor=none;top=0;left=0;bottom=0;right=0;overflow=hidden;" parent="3LQPEUW8eUS8wfKg7xUY-50" vertex="1">
                    &#xa;
                    <mxGeometry x="504" width="126" height="56" as="geometry"/>
                    &#xa;
                </mxCell>
                &#xa;
                <mxCell id="3LQPEUW8eUS8wfKg7xUY-60" value="Fullfil" style="rounded=0;whiteSpace=wrap;html=1;fillColor=#008a00;strokeColor=#005700;fontColor=#ffffff;" parent="Na8BR6bpJuqjeoadptdl-1" vertex="1">
                    &#xa;
                    <mxGeometry x="690" y="300" width="80" height="40" as="geometry"/>
                    &#xa;
                </mxCell>
                &#xa;
                <mxCell id="3LQPEUW8eUS8wfKg7xUY-61" value="Fullfil" style="rounded=0;whiteSpace=wrap;html=1;fillColor=#008a00;strokeColor=#005700;fontColor=#ffffff;" parent="Na8BR6bpJuqjeoadptdl-1" vertex="1">
                    &#xa;
                    <mxGeometry x="690" y="360" width="80" height="40" as="geometry"/>
                    &#xa;
                </mxCell>
                &#xa;
                <mxCell id="3LQPEUW8eUS8wfKg7xUY-62" value="Fullfil" style="rounded=0;whiteSpace=wrap;html=1;fillColor=#008a00;strokeColor=#005700;fontColor=#ffffff;" parent="Na8BR6bpJuqjeoadptdl-1" vertex="1">
                    &#xa;
                    <mxGeometry x="690" y="420" width="80" height="40" as="geometry"/>
                    &#xa;
                </mxCell>
                &#xa;
                <mxCell id="8vFaMJsQ1I14vORuza5z-7" value="" style="rounded=0;whiteSpace=wrap;html=1;fillColor=#647687;strokeColor=#314354;fontColor=#ffffff;" parent="Na8BR6bpJuqjeoadptdl-1" vertex="1">
                    &#xa;
                    <mxGeometry x="140" y="540" width="680" height="340" as="geometry"/>
                    &#xa;
                </mxCell>
                &#xa;
                <mxCell id="4ALEVSbDZ0UlVhhjeeiz-0" value="Menu" style="rounded=0;whiteSpace=wrap;html=1;fillColor=#6d8764;strokeColor=#3A5431;fontColor=#ffffff;" parent="Na8BR6bpJuqjeoadptdl-1" vertex="1">
                    &#xa;
                    <mxGeometry x="415" y="550" width="120" height="30" as="geometry"/>
                    &#xa;
                </mxCell>
                &#xa;
                <mxCell id="4ALEVSbDZ0UlVhhjeeiz-1" value="" style="rounded=0;whiteSpace=wrap;html=1;fillColor=#eeeeee;strokeColor=#36393d;" parent="Na8BR6bpJuqjeoadptdl-1" vertex="1">
                    &#xa;
                    <mxGeometry x="210" y="635" width="540" height="50" as="geometry"/>
                    &#xa;
                </mxCell>
                &#xa;
                <mxCell id="4ALEVSbDZ0UlVhhjeeiz-2" value="" style="rounded=0;whiteSpace=wrap;html=1;fillColor=#eeeeee;strokeColor=#36393d;" parent="Na8BR6bpJuqjeoadptdl-1" vertex="1">
                    &#xa;
                    <mxGeometry x="210" y="705" width="540" height="50" as="geometry"/>
                    &#xa;
                </mxCell>
                &#xa;
                <mxCell id="4ALEVSbDZ0UlVhhjeeiz-3" value="" style="rounded=0;whiteSpace=wrap;html=1;fillColor=#eeeeee;strokeColor=#36393d;" parent="Na8BR6bpJuqjeoadptdl-1" vertex="1">
                    &#xa;
                    <mxGeometry x="210" y="770" width="540" height="50" as="geometry"/>
                    &#xa;
                </mxCell>
                &#xa;
                <mxCell id="4ALEVSbDZ0UlVhhjeeiz-4" value="Out Of Stock" style="rounded=0;whiteSpace=wrap;html=1;fillColor=#e51400;strokeColor=#B20000;fontColor=#ffffff;" parent="Na8BR6bpJuqjeoadptdl-1" vertex="1">
                    &#xa;
                    <mxGeometry x="570" y="640" width="80" height="40" as="geometry"/>
                    &#xa;
                </mxCell>
                &#xa;
                <mxCell id="4ALEVSbDZ0UlVhhjeeiz-6" value="Out Of Stock" style="rounded=0;whiteSpace=wrap;html=1;fillColor=#e51400;strokeColor=#B20000;fontColor=#ffffff;" parent="Na8BR6bpJuqjeoadptdl-1" vertex="1">
                    &#xa;
                    <mxGeometry x="570" y="710" width="80" height="40" as="geometry"/>
                    &#xa;
                </mxCell>
                &#xa;
                <mxCell id="4ALEVSbDZ0UlVhhjeeiz-7" value="Out Of Stock" style="rounded=0;whiteSpace=wrap;html=1;fillColor=#e51400;strokeColor=#B20000;fontColor=#ffffff;" parent="Na8BR6bpJuqjeoadptdl-1" vertex="1">
                    &#xa;
                    <mxGeometry x="570" y="775" width="80" height="40" as="geometry"/>
                    &#xa;
                </mxCell>
                &#xa;
                <mxCell id="4ALEVSbDZ0UlVhhjeeiz-9" value="" style="rounded=0;whiteSpace=wrap;html=1;fillColor=#f5f5f5;strokeColor=#666666;fontColor=#333333;" parent="Na8BR6bpJuqjeoadptdl-1" vertex="1">
                    &#xa;
                    <mxGeometry x="260" y="550" width="120" height="30" as="geometry"/>
                    &#xa;
                </mxCell>
                &#xa;
                <mxCell id="4ALEVSbDZ0UlVhhjeeiz-10" value="Search Product:" style="text;html=1;strokeColor=none;fillColor=none;align=center;verticalAlign=middle;whiteSpace=wrap;rounded=0;" parent="Na8BR6bpJuqjeoadptdl-1" vertex="1">
                    &#xa;
                    <mxGeometry x="150" y="555" width="100" height="20" as="geometry"/>
                    &#xa;
                </mxCell>
                &#xa;
                <mxCell id="4ALEVSbDZ0UlVhhjeeiz-11" value="In Stock" style="rounded=0;whiteSpace=wrap;html=1;fillColor=#60a917;strokeColor=#2D7600;fontColor=#ffffff;" parent="Na8BR6bpJuqjeoadptdl-1" vertex="1">
                    &#xa;
                    <mxGeometry x="665" y="640" width="80" height="40" as="geometry"/>
                    &#xa;
                </mxCell>
                &#xa;
                <mxCell id="4ALEVSbDZ0UlVhhjeeiz-12" value="In Stock" style="rounded=0;whiteSpace=wrap;html=1;fillColor=#60a917;strokeColor=#2D7600;fontColor=#ffffff;" parent="Na8BR6bpJuqjeoadptdl-1" vertex="1">
                    &#xa;
                    <mxGeometry x="665" y="710" width="80" height="40" as="geometry"/>
                    &#xa;
                </mxCell>
                &#xa;
                <mxCell id="4ALEVSbDZ0UlVhhjeeiz-13" value="In Stock" style="rounded=0;whiteSpace=wrap;html=1;fillColor=#60a917;strokeColor=#2D7600;fontColor=#ffffff;" parent="Na8BR6bpJuqjeoadptdl-1" vertex="1">
                    &#xa;
                    <mxGeometry x="665" y="775" width="80" height="40" as="geometry"/>
                    &#xa;
                </mxCell>
                &#xa;
                <mxCell id="4ALEVSbDZ0UlVhhjeeiz-15" value="&lt;font color=&quot;#000000&quot;&gt;Frappuccino&lt;/font&gt;" style="text;html=1;strokeColor=none;fillColor=none;align=center;verticalAlign=middle;whiteSpace=wrap;rounded=0;" parent="Na8BR6bpJuqjeoadptdl-1" vertex="1">
                    &#xa;
                    <mxGeometry x="250" y="650" width="40" height="20" as="geometry"/>
                    &#xa;
                </mxCell>
                &#xa;
                <mxCell id="4ALEVSbDZ0UlVhhjeeiz-16" value="&lt;font color=&quot;#000000&quot;&gt;Espresso&lt;/font&gt;" style="text;html=1;strokeColor=none;fillColor=none;align=center;verticalAlign=middle;whiteSpace=wrap;rounded=0;" parent="Na8BR6bpJuqjeoadptdl-1" vertex="1">
                    &#xa;
                    <mxGeometry x="240" y="720" width="40" height="20" as="geometry"/>
                    &#xa;
                </mxCell>
                &#xa;
                <mxCell id="4ALEVSbDZ0UlVhhjeeiz-17" value="&lt;font color=&quot;#000000&quot;&gt;Decaf&lt;/font&gt;" style="text;html=1;strokeColor=none;fillColor=none;align=center;verticalAlign=middle;whiteSpace=wrap;rounded=0;" parent="Na8BR6bpJuqjeoadptdl-1" vertex="1">
                    &#xa;
                    <mxGeometry x="240" y="785" width="40" height="20" as="geometry"/>
                    &#xa;
                </mxCell>
                &#xa;
            </root>
            &#xa;
        </mxGraphModel>
        &#xa;
    </diagram>
</mxfile>